<svg xmlns="http://www.w3.org/2000/svg" xmlns:xlink="http://www.w3.org/1999/xlink" width="32" height="32" viewBox="0 0 32 32">
    <defs>
        <path id="a" d="M13.26 12.502v-.076a7.506 7.506 0 0 0 1.936-5.03C15.196 3.302 11.98 0 8 0 4.018 0 .803 3.341.803 7.395c0 1.877.694 3.642 1.937 5.031l.036.038v.037A8.612 8.612 0 0 0 0 18.846c0 .563.074 1.126.146 1.69.182.863.877 1.464 1.717 1.464h12.273c.84 0 1.535-.6 1.717-1.464.11-.563.146-1.126.146-1.69.036-2.44-.95-4.768-2.74-6.344zM1.824 7.396c0-3.528 2.776-6.382 6.21-6.382 3.435 0 6.211 2.853 6.211 6.382 0 3.53-2.776 6.383-6.21 6.383-3.435 0-6.21-2.853-6.21-6.383zM14.903 20.31c-.074.376-.402.639-.731.639H1.86c-.366 0-.658-.263-.731-.639a6.742 6.742 0 0 1-.146-1.501c0-2.177.913-4.243 2.52-5.669l.036-.037.036.037a7.012 7.012 0 0 0 4.457 1.615 7.012 7.012 0 0 0 4.456-1.615l.036-.037.036.037c1.607 1.427 2.52 3.492 2.52 5.669-.036.525-.073 1.014-.182 1.501h.004z"/>
    </defs>
    <use fill="#565D60" fill-rule="evenodd" transform="translate(8 5)" xlink:href="#a"/>
</svg>
