<svg xmlns="http://www.w3.org/2000/svg" xmlns:xlink="http://www.w3.org/1999/xlink" width="32" height="32" viewBox="0 0 32 32">
    <defs>
        <path id="a" d="M18.479.902H.451A.485.485 0 0 1 0 .451C0 .225.225 0 .451 0h18.028c.225 0 .451.225.451.451a.484.484 0 0 1-.451.451zm0 4.507H.451A.485.485 0 0 1 0 4.958c0-.226.225-.451.451-.451h18.028c.225 0 .451.225.451.451a.484.484 0 0 1-.451.451zm0 4.507H.451A.485.485 0 0 1 0 9.465c0-.226.225-.451.451-.451h18.028c.225 0 .451.225.451.451a.484.484 0 0 1-.451.451z"/>
    </defs>
    <use fill="#565D60" fill-rule="evenodd" transform="translate(7 11)" xlink:href="#a"/>
</svg>
