<svg xmlns="http://www.w3.org/2000/svg" width="32" height="32" viewBox="0 0 32 32">
    <g fill="#565D60" fill-rule="evenodd">
        <path d="M25.493 21.743h-14.65c-.206 0-.31-.103-.413-.307l-.928-3.377L7.954 7.826H4.756c-.206 0-.413-.204-.413-.41 0-.205.206-.409.413-.409h3.508c.206 0 .413.204.413.41l1.547 10.54.929 3.07h14.34c.206 0 .413.204.413.41 0 .102-.206.306-.413.306z"/>
        <path d="M22.192 25.836c-1.238 0-2.27-1.023-2.27-2.251s1.032-2.252 2.27-2.252 2.27 1.024 2.27 2.252c0 1.228-1.032 2.251-2.27 2.251zm0-3.684c-.825 0-1.444.614-1.444 1.432s.619 1.432 1.444 1.432 1.444-.614 1.444-1.432c.103-.818-.62-1.432-1.444-1.432zM11.978 25.836c-1.238 0-2.27-1.023-2.27-2.251s1.032-2.252 2.27-2.252 2.27 1.024 2.27 2.252c0 1.228-1.032 2.251-2.27 2.251zm0-3.684c-.825 0-1.444.614-1.444 1.432s.619 1.432 1.444 1.432 1.444-.614 1.444-1.432-.62-1.432-1.444-1.432zM25.493 18.98H9.811c-.206 0-.413-.103-.413-.307l-1.134-8.596c0-.103 0-.205.103-.307.104-.103.206-.103.31-.103l19.292 1.228c.104 0 .206.103.31.204v.205l-2.374 7.47c-.103.102-.206.204-.413.204l.001.001zm-15.269-.716h14.96l2.166-6.652L9.09 10.384l1.134 7.88h.001z"/>
    </g>
</svg>
