<svg xmlns="http://www.w3.org/2000/svg" width="86" height="88" viewBox="0 0 86 88">
    <g fill="none" fill-rule="evenodd">
        <ellipse cx="43" cy="43.636" fill="#F45330" rx="43" ry="43.636"/>
        <path fill="#FFF" d="M26.12 27.825c0-2.283 0-6.514-2.61-6.514-2.16 0-5.37 5.48-6.21 7.58-.24.578-.3.913-.3 1.126 0 .427.45.61.75.61 1.26 0 3.45-3.563 4.68-5.45-.24 5.48-.57 10.655-.57 15.891 0 2.497.24 5.785 2.31 5.785 1.11 0 1.83-.67 2.16-1.98.27-1.095.27-2.587.27-4.261 0-1.553-.12-4.415-.24-7.154-.12-2.375-.24-4.597-.24-5.633zm11.28 15.07c.63 0 1.53-3.531 1.53-9.925 0-2.435-.15-4.688-.45-6.301-.33-1.918-.78-2.619-1.08-2.619-.78 0-2.1 1.827-2.43 5.085-.12 1.156-.21 2.77-.21 4.536 0 3.196.15 9.224 2.64 9.224zm-.09-21.25c1.26 0 5.28.67 5.28 9.042 0 10.96-1.65 15.405-5.73 15.405-2.85 0-6.21-2.162-6.21-12.452 0-8.98 4.59-11.995 6.66-11.995zM47.38 34.513c.6 0 1.2.03 1.74.03 0 .335.03.64.03.975-.33-.03-.66-.03-.93-.03-1.14 0-1.71.12-1.98.456a.858.858 0 0 0-.18.548v.122c.15 1.035.6 1.217 1.62 1.217.3 0 .66-.03 1.08-.03.18 0 .39 0 .6-.03 1.14 7.945 5.76 10.198 9.27 10.198 2.97 0 5.79-1.31 5.79-2.953 0-.73-.48-1.248-1.14-1.248-.87 0-2.04.548-2.61.548-3 0-5.01-2.131-5.67-6.454 1.89 0 2.76 0 3.63-.122h.06c.51 0 1.02-.244 1.02-.913 0-.61-.48-.883-1.38-.914l-3.54-.091c-.03-.335-.03-.67-.03-1.005 1.11.092 2.01.092 2.73.092 1.14 0 1.74-.122 2.01-.427.12-.152.15-.304.15-.7-.12-1.035-.57-1.187-1.59-1.187-.3 0-.66 0-1.11.03-.6.03-1.29.061-2.19.061.18-5.662 1.26-8.859 2.91-8.859 3.78 0 2.19 2.923 4.2 2.923.78 0 1.17-.61 1.17-1.461 0-1.918-1.98-4.993-5.82-4.993-2.16 0-7.65 2.13-8.07 12.299-1.32.03-2.07.091-2.07.091h-.06c-.54 0-1.02.244-1.02.792v.122c.03.608.51.913 1.38.913zM68.682 18.774c-.544 0-.612.396-.816 1.552-.017 0-.017-.017-.017-.034-.595-.984-.918-1.363-1.19-1.415-.102 0-.187.017-.255.086a.545.545 0 0 0-.204.432c0 .241.153.534.391.914l.629 1.052c-.306-.017-.578-.017-.85-.017-1.139 0-1.632.086-1.802.293a.494.494 0 0 0-.068.225v.051c.102.535.578.535 1.241.535h1.258c-.68.707-1.139 1.242-1.139 1.242a.547.547 0 0 0-.187.38c.017.103.051.19.187.293a.518.518 0 0 0 .697-.069c.238-.259.51-.518.782-.794-.136.95-.204 1.622-.204 1.622v.104c0 .224.119.448.391.448a.529.529 0 0 0 .544-.466c.085-.62.204-1.294.323-1.966.544.845.935 1.397.969 1.414a.527.527 0 0 0 .374.26c.272 0 .476-.294.476-.536a.64.64 0 0 0-.085-.276l-.017-.017c-.187-.259-.357-.552-1.037-1.69.595-.035 1.173-.07 1.751-.07.238 0 .476-.138.476-.414 0-.224-.17-.534-.527-.534h-.034c-.306.017-.646.017-1.173.017.867-.828 1.326-1.346 1.326-1.674v-.034c0-.242-.272-.362-.459-.362-.306 0-.612.31-1.513 1.207.068-.466.119-.845.119-1.121 0-.293-.068-.638-.357-.638zM19.963 66.435c-2.47 0-4.459-1.807-4.459-4.498 0-2.69 1.99-4.485 4.46-4.485 1.534 0 2.6.676 3.367 1.625l-.858.533c-.546-.702-1.47-1.196-2.51-1.196-1.898 0-3.34 1.456-3.34 3.523 0 2.054 1.442 3.536 3.34 3.536 1.04 0 1.898-.507 2.328-.936V62.77h-2.977v-.962h4.055v3.133c-.805.897-1.988 1.495-3.405 1.495zm10.335-.169h-.974v-.884c-.482.546-1.3 1.04-2.237 1.04-1.313 0-2.002-.637-2.002-2.002v-4.433h.976v4.134c0 1.105.558 1.43 1.404 1.43.767 0 1.494-.442 1.858-.949v-4.615h.976v6.28zm3.537.156c-.924 0-1.392-.533-1.392-1.469v-4.108h-1.04v-.858h1.04v-1.716h.976v1.716h1.274v.858h-1.274v3.9c0 .468.208.806.637.806.273 0 .533-.117.663-.26l.285.728c-.246.234-.597.403-1.17.403zm4.224 0c-1.026 0-1.898-.312-2.534-.988l.507-.702c.416.481 1.209.897 2.067.897.962 0 1.482-.455 1.482-1.079 0-1.52-3.888-.585-3.888-2.912 0-.975.846-1.807 2.34-1.807 1.066 0 1.82.403 2.328.91l-.455.676c-.377-.455-1.066-.793-1.873-.793-.858 0-1.39.43-1.39.988 0 1.378 3.886.468 3.886 2.912 0 1.053-.845 1.898-2.47 1.898zm6.826 0c-1.872 0-3.133-1.43-3.133-3.302 0-1.859 1.26-3.289 3.133-3.289 1.144 0 1.82.468 2.3 1.092l-.65.598c-.415-.572-.948-.819-1.598-.819-1.34 0-2.171 1.027-2.171 2.418 0 1.391.831 2.431 2.17 2.431.65 0 1.184-.26 1.6-.819l.65.598c-.481.624-1.157 1.092-2.301 1.092zm8.892-.156H52.8v-4.134c0-1.105-.572-1.43-1.416-1.43-.755 0-1.482.468-1.86.975v4.59h-.974v-8.672h.974v3.302c.443-.52 1.3-1.066 2.25-1.066 1.313 0 2.002.637 2.002 2.002v4.433zm4.783.156c-1.858 0-3.198-1.339-3.198-3.302 0-1.82 1.3-3.289 3.094-3.289 1.898 0 3.016 1.482 3.016 3.367v.247H56.39c.078 1.183.91 2.171 2.262 2.171.715 0 1.443-.286 1.938-.793l.468.637c-.625.624-1.47.962-2.497.962zm1.95-3.692c-.012-.936-.636-2.093-2.066-2.093-1.34 0-2.003 1.131-2.055 2.093h4.121zm3.017-3.64a.652.652 0 0 1-.65-.65c0-.364.298-.663.65-.663.364 0 .662.3.662.663 0 .364-.298.65-.662.65zm.493 7.176h-.974v-6.279h.974v6.28zm7.163 0h-.975v-4.108c0-1.105-.558-1.456-1.403-1.456-.768 0-1.496.468-1.86.975v4.59h-.974v-6.28h.974v.91c.443-.52 1.3-1.066 2.237-1.066 1.313 0 2.001.663 2.001 2.028v4.407z"/>
    </g>
</svg>
