<svg xmlns="http://www.w3.org/2000/svg" style="isolation:isolate" viewBox="96 -40 56 32" width="56" height="32"><g style="isolation:isolate"><path fill="none" d="M96-40h56v32H96z"/><g fill-rule="evenodd"><path d="M131.408-17.955c-.881.246-2.029.348-3.013.348-2.561 0-4.241-1.332-4.241-3.77 0-2.316 1.578-3.812 3.873-3.812.512 0 1.065.062 1.393.226v-3.361h1.988v10.369zm-1.988-5.287c-.307-.143-.738-.225-1.23-.225-1.208 0-2.008.737-2.008 2.028 0 1.373.861 2.152 2.275 2.152.246 0 .635 0 .963-.082v-3.873zm18.32 5.287c-.881.246-2.029.348-3.033.348-2.541 0-4.242-1.332-4.242-3.77 0-2.316 1.578-3.812 3.873-3.812.533 0 1.066.062 1.394.226v-3.361h2.008v10.369zm-2.008-5.287c-.308-.143-.718-.225-1.209-.225-1.23 0-2.029.737-2.029 2.028 0 1.373.881 2.152 2.295 2.152.246 0 .615 0 .943-.082v-3.873zm-11.189 0c.328-.143.799-.184 1.189-.184 1.229 0 2.069.696 2.069 1.946 0 1.476-.942 2.152-2.192 2.173v1.7h.102c2.582 0 4.119-1.413 4.119-3.934 0-2.295-1.639-3.648-4.058-3.648-1.229 0-2.438.287-3.237.615v9.734h2.008v-8.402z" fill="#3F3F42"/><path d="M117.309-29.656h.021-.021zm-.491-.266l.327.369.185-.103-.512-.266z" fill="#DC0032"/><path d="M116.326-30.189l.635.738.225-.123-.245-.287-.615-.328z" fill="#DC0032"/><path d="M115.813-30.455l.964 1.107.225-.123-.553-.656-.636-.328z" fill="#DC0032"/><path d="M115.322-30.721l1.27 1.475.226-.123-.882-1.024-.614-.328zm2.438 2.602l-.143.082.143.164v-.246z" fill="#DC0032"/><path d="M114.83-30.988l1.578 1.845.225-.123-1.188-1.394-.615-.328zm2.848 2.91l-.225.144.307.368v-.389l-.082-.123z" fill="#DC0032"/><path d="M114.318-31.254l1.905 2.213.246-.123-1.516-1.762-.635-.328zm3.176 3.279l-.226.143.492.574v-.39l-.266-.327z" fill="#DC0032"/><path d="M113.826-31.52l2.233 2.581.226-.122-1.844-2.132-.615-.327zm3.483 3.668l-.225.122.676.8v-.39l-.451-.532z" fill="#DC0032"/><path d="M113.334-31.787l2.541 2.951.225-.123-2.151-2.5-.615-.328zm3.791 4.037l-.225.123.86 1.004v-.389l-.635-.738z" fill="#DC0032"/><path d="M112.822-32.053l2.869 3.319.225-.123-2.459-2.868-.635-.328zm4.119 4.405l-.226.123 1.045 1.209v-.389l-.819-.943z" fill="#DC0032"/><path d="M112.33-32.32l3.176 3.709.226-.143-2.787-3.238-.615-.328zm4.426 4.775l-.225.123 1.229 1.434v-.389l-1.004-1.168z" fill="#DC0032"/><path d="M111.818-32.586l3.504 4.078.225-.144-3.094-3.606-.635-.328zm4.774 5.143l-.246.123 1.414 1.64v-.39l-1.168-1.373z" fill="#DC0032"/><path d="M111.326-32.852l3.811 4.446.246-.143-3.422-3.976-.635-.327zm5.082 5.512l-.226.123 1.578 1.865v-.41l-1.352-1.578z" fill="#DC0032"/><path d="M110.834-33.119l4.139 4.816.226-.144-3.75-4.344-.615-.328zm5.389 5.881l-.225.123 1.762 2.07v-.389l-1.537-1.804z" fill="#DC0032"/><path d="M110.322-33.406l4.467 5.205.225-.143-4.057-4.713-.635-.349zm5.717 6.271l-.226.123 1.947 2.274v-.389l-1.721-2.008z" fill="#DC0032"/><path d="M109.83-33.672l4.774 5.574.226-.123-4.365-5.103-.635-.348zm6.024 6.639l-.225.123 2.131 2.5v-.41l-1.906-2.213z" fill="#DC0032"/><path d="M109.338-33.918l5.082 5.922.225-.123-4.692-5.471-.615-.328zm6.332 6.988l-.225.123 2.315 2.705v-.39l-2.09-2.438z" fill="#DC0032"/><path d="M109.01-34l5.226 6.107.225-.123-5-5.841-.123-.061a.596.596 0 0 0-.328-.082zm6.476 7.172l-.226.123 2.5 2.91v-.389l-2.274-2.644z" fill="#DC0032"/><path d="M109.01-34c-.082 0-.164.02-.246.041l5.287 6.168.246-.123L109.072-34h-.062zm6.312 7.275l-.226.123 2.664 3.135v-.41l-2.438-2.848z" fill="#DC0032"/><path d="M108.826-33.98c-.041.021-.103.041-.123.062l-.123.061 5.307 6.168.226-.122-5.287-6.169zm6.311 7.357l-.225.143 2.848 3.32v-.389l-2.623-3.074z" fill="#DC0032"/><path d="M108.621-33.898l-.226.123 5.308 6.189.225-.123-5.307-6.189zm6.332 7.378l-.226.143 3.033 3.525v-.39l-2.807-3.278z" fill="#DC0032"/><path d="M108.436-33.795l-.225.123 5.307 6.188.226-.123-5.308-6.188zm6.332 7.377l-.225.143 3.217 3.75v-.389l-2.992-3.504z" fill="#DC0032"/><path d="M108.252-33.693l-.225.123 5.307 6.189.225-.123-5.307-6.189zm6.332 7.377l-.225.144 3.401 3.955v-.39l-3.176-3.709z" fill="#DC0032"/><path d="M108.068-33.59l-.226.123 5.308 6.188.225-.123-5.307-6.188zm6.332 7.377l-.226.143 3.586 4.16v-.389l-3.36-3.914z" fill="#DC0032"/><path d="M107.883-33.488l-.225.123 5.307 6.189.226-.123-5.308-6.189zm6.353 7.377l-.226.144 3.75 4.385v-.389l-3.524-4.14z" fill="#DC0032"/><path d="M107.699-33.406l-.226.144 5.328 6.188.226-.123-5.328-6.209zm6.352 7.418l-.225.123 3.934 4.59v-.389l-3.709-4.324z" fill="#DC0032"/><path d="M107.514-33.303l-.225.123 5.328 6.209.225-.123-5.328-6.209zm6.353 7.418l-.226.123 4.119 4.815v-.41l-3.893-4.528z" fill="#DC0032"/><path d="M107.33-33.201l-.226.123 5.328 6.23.226-.144-5.328-6.209zm6.352 7.418l-.225.123 4.303 5.021v-.39l-4.078-4.754z" fill="#DC0032"/><path d="M107.145-33.098l-.225.123 5.328 6.229.225-.143-5.328-6.209zm6.353 7.418l-.226.123 4.488 5.225v-.389l-4.262-4.959z" fill="#DC0032"/><path d="M106.961-32.996l-.225.123 5.327 6.23.226-.144-5.328-6.209zm6.352 7.418l-.225.123 4.672 5.451v-.41l-4.447-5.164z" fill="#DC0032"/><path d="M106.777-32.893l-.226.123 5.328 6.229.225-.143-5.327-6.209zm6.373 7.418l-.226.123 4.836 5.655v-.389l-4.61-5.389z" fill="#DC0032"/><path d="M106.592-32.811l-.246.122 5.369 6.25.226-.143-5.349-6.229zm6.373 7.438l-.225.123 5.02 5.861v-.39l-4.795-5.594z" fill="#DC0032"/><path d="M106.408-32.709l-.246.123 5.389 6.27a.164.164 0 0 1 .082-.082l.123-.082-5.348-6.229zm6.373 7.439l-.226.122 5.164 6.025a.582.582 0 0 0 .041-.184v-.164l-4.979-5.799z" fill="#DC0032"/><path d="M106.223-32.607l-.246.123 5.513 6.414v-.082c0-.061.041-.143.082-.205l-5.349-6.25zm6.373 7.439l-.164.102c-.02 0-.041.021-.061.021l5.246 6.127a.71.71 0 0 0 .123-.246l-5.144-6.004z" fill="#DC0032"/><path d="M106.039-32.504l-.246.123 5.697 6.639v-.41l-5.451-6.352zm5.984 7.356l5.45 6.373c.062-.041.123-.123.185-.184l-5.246-6.107a.35.35 0 0 1-.287 0l-.102-.082z" fill="#DC0032"/><path d="M105.854-32.402l-.245.123 11.68 13.607.164-.082.061-.062-5.369-6.25h-.02l-.471-.286c-.041-.021-.062-.062-.103-.103-.041-.061-.041-.102-.061-.143v-.226l-5.636-6.578z" fill="#DC0032"/><path d="M105.67-32.299l-.246.123 11.68 13.606.226-.123-11.66-13.606z" fill="#DC0032"/><path d="M105.486-32.217l-.246.123 11.701 13.627.225-.123-11.68-13.627z" fill="#DC0032"/><path d="M105.301-32.115l-.246.123 11.701 13.627.226-.123-11.681-13.627z" fill="#DC0032"/><path d="M105.117-32.012l-.246.123 11.701 13.627.225-.123-11.68-13.627z" fill="#DC0032"/><path d="M104.912-31.91l-.226.123 11.701 13.648.226-.144-11.701-13.627z" fill="#DC0032"/><path d="M104.727-31.807l-.225.123 11.701 13.647.225-.143-11.701-13.627z" fill="#DC0032"/><path d="M104.543-31.705l-.225.123 11.721 13.648.225-.144-11.721-13.627z" fill="#DC0032"/><path d="M104.359-31.623l-.226.123 11.721 13.668.226-.143-11.721-13.648z" fill="#DC0032"/><path d="M104.174-31.52l-.225.122L115.67-17.73l.225-.122-11.721-13.668z" fill="#DC0032"/><path d="M103.99-31.418l-.226.123 5.697 6.639.184.123c.082.041.164.144.164.246v.021l5.677 6.639.225-.123-11.721-13.668z" fill="#DC0032"/><path d="M103.805-31.316l-.225.123 5.348 6.25.676.369-5.799-6.742zm5.984 6.968c0 .02.02.041.02.061v.348l5.492 6.414.226-.123-5.738-6.7z" fill="#DC0032"/><path d="M103.621-31.213l-.226.123 5 5.84.677.369-5.451-6.332zm6.188 7.192v.39l5.328 6.209.226-.123-5.554-6.476z" fill="#DC0032"/><path d="M103.436-31.111l-.225.123 4.672 5.431.656.368-5.103-5.922zm6.373 7.398v.41l5.144 5.983.225-.123-5.369-6.27z" fill="#DC0032"/><path d="M103.252-31.029l-.225.123 4.323 5.041.656.39-4.754-5.554zm6.557 7.644v.389l4.959 5.779.226-.123-5.185-6.045z" fill="#DC0032"/><path d="M103.068-30.926l-.226.123 3.976 4.631.655.389-4.405-5.143zm6.741 7.848v.389l4.775 5.574.225-.123-5-5.84z" fill="#DC0032"/><path d="M102.883-30.824l-.225.123 3.627 4.242.656.369-4.058-4.734zm6.926 8.054v.409l4.591 5.369.225-.143-4.816-5.635z" fill="#DC0032"/><path d="M102.699-30.721l-.226.123 3.279 3.832.656.368-3.709-4.323zm7.11 8.278v.39l4.427 5.164.225-.144-4.652-5.41z" fill="#DC0032"/><path d="M102.514-30.619l-.225.123 2.93 3.422.676.369-3.381-3.914zm7.295 8.484v.389l4.242 4.959.226-.143-4.468-5.205z" fill="#DC0032"/><path d="M102.33-30.516l-.226.123 2.582 3.012.677.389-3.033-3.524zm5.369 6.639l.533.615v-.226c0-.041-.041-.102-.082-.123l-.451-.266zm2.11 2.049v.41l4.058 4.734.225-.144-4.283-5z" fill="#DB0032"/><path d="M102.145-30.434l-.225.123 2.234 2.622.676.39-2.685-3.135zm5.021 6.25l1.066 1.229v-.389l-.39-.451-.676-.389zm2.643 2.684v.389l3.873 4.529.226-.123-4.099-4.795z" fill="#DC0032"/><path d="M101.961-30.332l-.225.123 1.905 2.234.656.368-2.336-2.725zm4.672 5.861l1.599 1.844v-.389l-.923-1.086-.676-.369zm3.176 3.278v.39l3.689 4.323.225-.122-3.914-4.591z" fill="#DC0032"/><path d="M101.777-30.23l-.226.123 1.558 1.824.655.369-1.987-2.316zm4.344 5.451l2.111 2.459v-.389l-1.455-1.701-.656-.369zm3.688 3.914v.39l3.525 4.098.225-.123-3.75-4.365z" fill="#DC0032"/><path d="M101.592-30.127l-.225.123 1.209 1.414.656.369-1.64-1.906zm3.996 5.041l2.644 3.074v-.39l-1.988-2.295-.656-.389zm4.221 4.529v.389l3.341 3.893.225-.123-3.566-4.159z" fill="#DC0032"/><path d="M101.408-30.025l-.226.123.861 1.004.656.39-1.291-1.517zm3.647 4.632l3.177 3.709v-.39l-2.521-2.93-.656-.389zm4.754 5.143v.389l3.156 3.689.226-.123-3.382-3.955z" fill="#DC0032"/><path d="M101.223-29.922l-.225.123.512.594.676.389-.963-1.106zm3.3 4.242l3.709 4.303v-.389l-3.054-3.545-.655-.369zm5.286 5.758v.389l2.972 3.463.225-.123-3.197-3.729z" fill="#DC0032"/><path d="M101.039-29.84l-.246.123.184.225.677.369-.615-.717zm2.951 3.852l4.242 4.939v-.41l-3.566-4.16-.676-.369zm5.819 6.373v.39l2.787 3.278.226-.143-3.013-3.525z" fill="#DC0032"/><path d="M100.854-29.738l-.143.082.41.226-.267-.308zm2.603 3.443l4.775 5.553v-.389l-4.099-4.775-.676-.389zm6.352 6.988v.409l2.623 3.054.226-.144-2.849-3.319z" fill="#DC0032"/><path d="M102.945-26.602l5.287 6.168v-.39l-4.632-5.389-.655-.389zm6.864 7.622v.39l2.439 2.848.225-.143-2.664-3.095z" fill="#DC0032"/><path d="M102.412-26.889l5.82 6.782v-.409l-5.164-6.004-.656-.369zm7.397 8.217v.389l2.254 2.644.226-.144-2.48-2.889z" fill="#DC0032"/><path d="M101.879-27.197l6.353 7.398v-.39l-5.697-6.639-.656-.369zm7.93 8.832v.41l2.07 2.418.225-.123-2.295-2.705z" fill="#DC0032"/><path d="M101.346-27.504l6.886 8.012v-.389l-6.23-7.234-.656-.389zm8.463 9.467v.389l1.886 2.214.225-.123-2.111-2.48z" fill="#DB0032"/><path d="M100.814-27.811l7.418 8.647v-.389l-6.763-7.869-.655-.389zm8.995 10.081v.39l1.722 2.008.225-.123-1.947-2.275z" fill="#DA0032"/><path d="M100.281-28.098l7.951 9.241v-.389l-7.275-8.484-.676-.368zm9.528 10.676v.41l1.537 1.782.226-.122-1.763-2.07z" fill="#D90032"/><path d="M100.26-28.119v.287l7.972 9.283v-.39l-7.808-9.098-.164-.082zm9.549 11.025v.246c0 .041-.02.082-.041.102l1.394 1.619.225-.123-1.578-1.844z" fill="#D80032"/><path d="M100.26-27.914v.41l7.972 9.283v-.39l-7.972-9.303zm9.529 11.127c-.021.082-.082.164-.144.185l-.02.02 1.352 1.557.226-.123-1.414-1.639z" fill="#D70032"/><path d="M100.26-27.586v.389l7.972 9.283v-.389l-7.972-9.283zm9.406 10.963c0 .021 0 .021-.021.021l-.204.122 1.352 1.558.225-.123-1.352-1.578z" fill="#D60032"/><path d="M100.26-27.279v.39l7.972 9.282v-.389l-7.972-9.283zm9.242 10.758l-.246.144 1.373 1.578.225-.144-1.352-1.578z" fill="#D50032"/><path d="M100.26-26.951v.39l7.972 9.282v-.389l-7.972-9.283zm9.058 10.533l-.144.082c-.041.02-.082.02-.123.02l1.394 1.619.225-.143-1.352-1.578z" fill="#D40032"/><path d="M100.26-26.643v.389l7.972 9.283v-.39l-7.972-9.282zm8.422 10.225l1.578 1.824.226-.144-1.373-1.578c-.021 0-.062.021-.082.021h-.021c-.061 0-.102-.021-.143-.041l-.185-.082z" fill="#D30032"/><path d="M100.26-26.336v.41l9.816 11.434.225-.143-1.475-1.722-.451-.245a.285.285 0 0 1-.143-.246v-.205l-7.972-9.283z" fill="#D20032"/><path d="M100.26-26.008v.389l9.631 11.23.226-.123-9.857-11.496z" fill="#D10032"/><path d="M100.26-25.701v.39l9.447 11.024.225-.123-9.672-11.291z" fill="#D00032"/><path d="M100.26-25.393v.409l9.283 10.8.225-.123-9.508-11.086z" fill="#CF0032"/><path d="M100.26-25.066v.39l9.099 10.594.225-.123-9.324-10.861z" fill="#CE0032"/><path d="M100.26-24.758v.389L109.154-14l.184-.061.062-.041-9.14-10.656z" fill="#CD0032"/><path d="M100.26-24.451v.41L108.887-14h.123c.062 0 .123 0 .185-.02l-8.935-10.431z" fill="#CC0032"/><path d="M100.26-24.123v.389l8.156 9.509.287.164a.485.485 0 0 0 .246.061l-8.689-10.123z" fill="#CB0032"/><path d="M100.26-23.816v.39l7.623 8.893.676.39-8.299-9.673z" fill="#CA0032"/><path d="M100.26-23.488v.39l7.09 8.258.677.389-7.767-9.037z" fill="#C90032"/><path d="M100.26-23.18v.389l6.558 7.643.655.39-7.213-8.422z" fill="#C80033"/><path d="M100.26-22.873v.389l6.025 7.029.656.389-6.681-7.807z" fill="#C70033"/><path d="M100.26-22.545v.389l5.472 6.373.676.39-6.148-7.152z" fill="#C60033"/><path d="M100.26-22.238v.39l4.939 5.758.676.389-5.615-6.537z" fill="#C50033"/><path d="M100.26-21.93v.389l4.406 5.143.676.39-5.082-5.922z" fill="#C40033"/><path d="M100.26-21.602v.389l3.873 4.508.676.389-4.549-5.286z" fill="#C30033"/><path d="M100.26-21.295v.389l3.34 3.894.677.389-4.017-4.672z" fill="#C20033"/><path d="M100.26-20.988v.41l2.808 3.258.655.39-3.463-4.058z" fill="#C10033"/><path d="M100.26-20.66v.389l2.254 2.644.677.389-2.931-3.422z" fill="#C00033"/><path d="M100.26-20.352v.389l1.722 2.029.676.368-2.398-2.786z" fill="#BF0033"/><path d="M100.26-20.045v.41l1.189 1.373.676.389-1.865-2.172z" fill="#BE0033"/><path d="M100.26-19.717v.389l.656.758.676.39-1.332-1.537z" fill="#BD0033"/><path d="M100.26-19.41v.103c0 .205.144.45.308.553l.491.266-.799-.922z" fill="#BC0033"/><path d="M100.383-18.939c.041.041.062.082.103.103l-.103-.103z" fill="#B03"/></g></g></svg>