<svg xmlns="http://www.w3.org/2000/svg" viewBox="0 0 148 56"><defs><style>.cls-1{fill:#ea5438;}</style></defs><path class="cls-1" d="M6.41 37.2a2 2 0 0 1-1.34-.64c-.58-.56-.68-3.56-.68-6.85v-4.69c0-2.24-.21-3.42-.21-5.13 0-1.32.17-2.57 1.75-2.57.74 0 2 .47 2 5.93a109.32 109.32 0 0 1-1 13.81.91.91 0 0 1-.52.14zM15.22 17.83a.8.8 0 0 1 .64.29c.51 0 5 12.5 5 12.5a4.69 4.69 0 0 1 0-.56c0-2.78 1.11-8.09 1.11-11 0-1.24.64-1.61 1.24-1.61s1 .29 1 .54c0 10.68-1.63 18.4-2.24 18.77a1.51 1.51 0 0 1-.84.21 1.61 1.61 0 0 1-.82-.19c-1.15-.76-5-9.53-5-9.53 0 5.83 0 9-1.32 9.55a1.6 1.6 0 0 1-.58.12c-.35 0-.6-.14-.62-.35a15.7 15.7 0 0 1-.12-2.22c0-5.41 1.26-16 1.94-16.36a1.4 1.4 0 0 1 .61-.16zM36.13 19.58c0 .21-.21.82-.76.82s-.64-.89-1.44-.89-1.79.43-1.79 3.07c0 5.23 3.23 6.11 3.23 9.63 0 2.88-2.06 4.22-4.88 4.22a2.41 2.41 0 0 1-2.68-2.12.78.78 0 0 1 .76-.89c.95 0 .51 1.4 1.67 1.4.95 0 1.17-.6 1.17-1.65 0-1.83-2.88-5-2.88-8.19 0-6.05 3.93-7 5.45-7a2 2 0 0 1 2.15 1.6zM43.43 28.66v6.22c0 1.4-.19 2.08-1.89 2.08s-2-1.52-2-4.43.46-6.2.46-8.53c0-.7-.08-1.38-.08-2.41 0-2.88.86-4 1.83-4a2.59 2.59 0 0 1 1.56.49 3.71 3.71 0 0 1 2.06-.54c2.86 0 4.94 1.26 4.94 4.57 0 2.55-.93 6.81-5.62 6.81a2.38 2.38 0 0 1-1.26-.26zm0-5.72v4c.8 0 .74.31 1.75.31s1.58-2.49 1.58-4.71c0-1.77-.37-3.38-1.17-3.38-2.12 0-1.63 2.22-1.85 3.31a.62.62 0 0 1-.31.47zM56.42 37.2a2 2 0 0 1-1.34-.64c-.58-.56-.68-3.56-.68-6.85v-4.69c0-2.24-.21-3.42-.21-5.13 0-1.32.17-2.57 1.75-2.57.74 0 2 .47 2 5.93a109.32 109.32 0 0 1-1 13.81.91.91 0 0 1-.52.14zM72.37 23.43c0 1.77-.29 3.75-2.28 4.57 1 1.4 2.31 4.53 3.15 5.62a2 2 0 0 1 .54 1.21c0 .7-1 1.11-1.54 1.11s-1.36-.39-2.18-2a30.38 30.38 0 0 1-2.1-5.52h-.26a6.66 6.66 0 0 1-1.19-.08c-.06 4-.25 7.58-.25 7.58a2.56 2.56 0 0 1-1.46.49c-2.06 0-2.31-2.18-2.31-3.68s.14-3.36.19-6.09c.14-7.62.35-8.54 2.88-8.54a.31.31 0 0 1 .23.14 11.62 11.62 0 0 1 1.89-.14c3.15-.04 4.69 3.04 4.69 5.33zM67.86 27c1 0 1.54-1.63 1.54-3.38 0-2.06-.68-4.28-1.89-4.28a2.35 2.35 0 0 0-1.3.33 53.92 53.92 0 0 1 .31 7c.11.13.29.33 1.34.33zM78.42 25.3c.76-4.38 1.56-6.44 2.41-7.23a1.84 1.84 0 0 1 1.36-.43 2.53 2.53 0 0 1 1.38.49c1.36.93 1.89 12.19 2.94 15.64a5.24 5.24 0 0 1 .25 1.52c0 1-.33 1.56-1.42 1.56-.82 0-2.14-.64-3-6.57-.62 0-1.67 0-2.59-.06l-1 4.43c-.21.91-.23 1-.82 1s-.74-.58-.74-.86a59.62 59.62 0 0 1 1.23-9.49zm1.69 3.17a8.36 8.36 0 0 1 1.42-.12h.51c-.17-2.12-.33-4.36-.41-6.2-.31 1.22-.72 2.85-1.52 6.32zM88.5 20.92c1.42-.74 7.25-3.23 12.33-3.23 2.61 0 2.74 1.23 2.74 1.71 0 .47-.86.76-2.66.76a32.51 32.51 0 0 0-4 .6c.95 1.65 1 9.8 1.63 12.64a7.73 7.73 0 0 1 .16 1.52c0 1.19-.51 1.83-1.58 1.83-.72 0-1.85-.54-2.18-4.8-.14-1.92-.19-3.87-.19-5.6 0-2.31.08-4.2.12-5.23a44.05 44.05 0 0 1-5.21.76c-.56 0-1.07-.25-1.07-.89zM108.84 37.2a2 2 0 0 1-1.34-.64c-.58-.54-.68-3.54-.68-6.85v-4.69c0-2.24-.21-3.42-.21-5.13 0-1.32.16-2.57 1.75-2.57.74 0 2 .47 2 5.93a109.32 109.32 0 0 1-1 13.81.92.92 0 0 1-.52.14zM120.88 18.2c1.07 0 6.71.27 6.71 5.95s-1.44 8.79-2.8 10.27a6.53 6.53 0 0 1-5 1.91c-2.26 0-5.08-1-5.08-6.24.01-8.76 2.58-11.89 6.17-11.89zm2.59 6.73c0-4.24-1-5.08-1.83-5.08-1.28 0-2.82.54-2.82 9.94 0 1.44.29 4.88 2.47 4.88 1.25 0 2.18-2.67 2.18-9.74zM134.21 17.83a.8.8 0 0 1 .64.29c.51 0 5 12.5 5 12.5a4.48 4.48 0 0 1 0-.56c0-2.78 1.11-8.09 1.11-11 0-1.24.64-1.61 1.23-1.61s1 .29 1 .54c0 10.68-1.63 18.4-2.24 18.77a1.51 1.51 0 0 1-.84.21 1.61 1.61 0 0 1-.82-.19c-1.15-.76-5-9.53-5-9.53 0 5.83 0 9-1.32 9.55a1.6 1.6 0 0 1-.58.12c-.35 0-.6-.14-.62-.35a15.54 15.54 0 0 1-.12-2.22c0-5.41 1.26-16 1.94-16.36a1.4 1.4 0 0 1 .62-.16z"/></svg>