<svg xmlns="http://www.w3.org/2000/svg" style="isolation:isolate" viewBox="124.763 16.664 24 24" width="24" height="24"><circle vector-effect="non-scaling-stroke" cx="136.763" cy="28.664" r="12" fill="#3F729B"/><g fill-rule="evenodd" fill="#FFF"><path d="M141.809 24.744a.748.748 0 0 1-.75.752h-.75a.751.751 0 0 1-.75-.751v-.376a.75.75 0 0 1 .75-.75h.75c.415 0 .75.335.75.75v.376-.001zm-1.125-2.25h-6.75v3.753h.93a3.044 3.044 0 0 1 4.14 0h3.18v6.007a1.502 1.502 0 0 1-1.5 1.501h-7.5a1.504 1.504 0 0 1-1.5-1.501v-9.185a2.251 2.251 0 0 0-.75 1.676v7.508a2.254 2.254 0 0 0 2.25 2.252h7.5a2.248 2.248 0 0 0 2.25-2.252v-7.509a2.247 2.247 0 0 0-2.25-2.252v.002z"/><path d="M133.056 26.246v-3.752c-.263 0-.515.047-.75.13v3.623h.75v-.001zm2.411 2.648a1.525 1.525 0 0 1 3.048-.002 1.525 1.525 0 0 1-3.048.001m3.807 0a2.284 2.284 0 1 0-4.568.002 2.284 2.284 0 0 0 4.568-.002z"/></g></svg>