<svg xmlns="http://www.w3.org/2000/svg" style="isolation:isolate" viewBox="95 -1 42 26" width="42" height="26"><g style="isolation:isolate"><path d="M99.144 0h33.712A3.146 3.146 0 0 1 136 3.144v17.712A3.146 3.146 0 0 1 132.856 24H99.144A3.146 3.146 0 0 1 96 20.856V3.144A3.146 3.146 0 0 1 99.144 0z" fill="#fff"/><path d="M99.144 0h33.712A3.146 3.146 0 0 1 136 3.144v17.712A3.146 3.146 0 0 1 132.856 24H99.144A3.146 3.146 0 0 1 96 20.856V3.144A3.146 3.146 0 0 1 99.144 0z" fill="none" stroke="#bec4c4" stroke-linecap="square" stroke-miterlimit="2"/><path d="M127.509 21.083v.049h.045c.01 0 .019-.003.025-.007.005-.003.009-.01.009-.018a.023.023 0 0 0-.009-.018.046.046 0 0 0-.025-.006h-.045zm.046-.034c.023 0 .041.005.053.016a.05.05 0 0 1 .019.042.046.046 0 0 1-.015.037.068.068 0 0 1-.043.018l.06.069h-.046l-.056-.068h-.018v.068h-.038v-.182h.084zm-.012.244a.145.145 0 0 0 .059-.012.151.151 0 0 0 .092-.14.168.168 0 0 0-.011-.06.158.158 0 0 0-.081-.081.144.144 0 0 0-.059-.011.149.149 0 0 0-.153.152c0 .021.004.041.012.059a.134.134 0 0 0 .032.049c.014.013.03.024.049.032a.15.15 0 0 0 .06.012zm0-.348a.193.193 0 0 1 .183.12.176.176 0 0 1 .016.076.2.2 0 0 1-.121.18.21.21 0 0 1-.157 0 .237.237 0 0 1-.064-.042.2.2 0 0 1-.058-.138c0-.027.006-.053.016-.076a.21.21 0 0 1 .042-.063.198.198 0 0 1 .143-.057zm-18.378-.7c0-.346.227-.63.598-.63.354 0 .593.272.593.63 0 .359-.239.631-.593.631-.371 0-.598-.284-.598-.631zm1.595 0v-.985h-.428v.24c-.136-.178-.342-.289-.623-.289-.552 0-.985.433-.985 1.034 0 .602.433 1.035.985 1.035a.749.749 0 0 0 .623-.289v.239h.428v-.985zm14.473 0c0-.346.227-.63.598-.63.355 0 .594.272.594.63 0 .359-.239.631-.594.631-.371 0-.598-.284-.598-.631zm1.596 0v-1.776h-.429V19.5a.745.745 0 0 0-.622-.289c-.553 0-.986.433-.986 1.034 0 .602.433 1.035.986 1.035.28 0 .486-.112.622-.289v.239h.429v-.985zm-10.753-.651c.276 0 .454.173.499.478h-1.022c.046-.284.218-.478.523-.478zm.009-.383c-.577 0-.981.42-.981 1.034 0 .627.42 1.035 1.01 1.035.296 0 .568-.074.807-.276l-.21-.318a.938.938 0 0 1-.573.206c-.276 0-.527-.127-.589-.482h1.463c.004-.053.008-.107.008-.165-.004-.614-.383-1.034-.935-1.034zm5.172 1.034c0-.346.226-.63.597-.63.354 0 .594.272.594.63 0 .359-.24.631-.594.631-.371 0-.597-.284-.597-.631zm1.594 0v-.985h-.428v.24a.745.745 0 0 0-.622-.289c-.552 0-.985.433-.985 1.034 0 .602.433 1.035.985 1.035.28 0 .486-.112.622-.289v.239h.428v-.985zm-4.013 0c0 .598.416 1.035 1.051 1.035.296 0 .494-.066.708-.235l-.205-.346a.87.87 0 0 1-.516.177c-.342-.004-.593-.251-.593-.631 0-.379.251-.626.593-.63.186 0 .355.061.516.177l.205-.346c-.214-.169-.412-.235-.708-.235-.635 0-1.051.437-1.051 1.034zm5.522-1.034a.58.58 0 0 0-.519.289v-.24h-.425v1.97h.429v-1.104c0-.326.14-.507.42-.507a.7.7 0 0 1 .268.049l.132-.403a.893.893 0 0 0-.305-.054zm-11.482.206c-.206-.136-.49-.206-.803-.206-.499 0-.82.239-.82.631 0 .321.239.519.679.581l.203.028c.235.033.346.095.346.207 0 .152-.157.239-.45.239-.296 0-.51-.095-.655-.206l-.202.333c.235.173.532.256.853.256.569 0 .899-.268.899-.643 0-.346-.26-.528-.688-.589l-.202-.03c-.186-.024-.334-.061-.334-.193 0-.144.14-.231.375-.231.251 0 .495.095.614.169l.185-.346zm5.527-.206a.58.58 0 0 0-.519.289v-.24h-.425v1.97h.429v-1.104c0-.326.14-.507.42-.507a.7.7 0 0 1 .268.049l.132-.403a.893.893 0 0 0-.305-.054zm-3.655.049h-.701v-.597h-.433v.597h-.399v.392h.399v.898c0 .458.177.73.684.73.186 0 .4-.058.536-.153l-.124-.367a.796.796 0 0 1-.379.112c-.214 0-.284-.132-.284-.33v-.89h.701v-.392zm-6.405 1.97v-1.236c0-.466-.296-.779-.775-.783-.251-.004-.511.074-.692.35a.724.724 0 0 0-.651-.35.653.653 0 0 0-.577.292v-.243h-.429v1.97h.433v-1.092c0-.342.189-.523.482-.523.285 0 .429.185.429.519v1.096h.433v-1.092c0-.342.197-.523.482-.523.292 0 .432.185.432.519v1.096h.433z" fill="#231F20"/><path d="M127.774 14.679v-.287h-.075l-.087.197-.087-.197h-.075v.287h.053v-.217l.081.188h.056l.081-.188v.217h.053zm-.476 0v-.238h.096v-.049h-.245v.049h.096v.238h.053z" fill="#F79410"/><path d="M119.245 15.917h-6.491V4.251h6.491v11.666z" fill="#FF5F00"/><path d="M113.17 10.083a7.408 7.408 0 0 1 2.833-5.833A7.418 7.418 0 0 0 104 10.083a7.418 7.418 0 0 0 12.003 5.833 7.406 7.406 0 0 1-2.833-5.833z" fill="#EB001B"/><path d="M128 10.083a7.418 7.418 0 0 1-12.004 5.833 7.404 7.404 0 0 0 2.834-5.833 7.406 7.406 0 0 0-2.834-5.833A7.418 7.418 0 0 1 128 10.083z" fill="#F79E1B"/></g></svg>