<svg xmlns="http://www.w3.org/2000/svg" style="isolation:isolate" viewBox="-1 -1 42 26" width="42" height="26"><g style="isolation:isolate"><path d="M3.144 0h33.712A3.146 3.146 0 0 1 40 3.144v17.712A3.146 3.146 0 0 1 36.856 24H3.144A3.146 3.146 0 0 1 0 20.856V3.144A3.146 3.146 0 0 1 3.144 0z" fill="#fff"/><path d="M3.144 0h33.712A3.146 3.146 0 0 1 40 3.144v17.712A3.146 3.146 0 0 1 36.856 24H3.144A3.146 3.146 0 0 1 0 20.856V3.144A3.146 3.146 0 0 1 3.144 0z" fill="none" stroke="#bec4c4" stroke-linecap="square" stroke-miterlimit="2"/><path d="M7.08 7.47H4.435a.368.368 0 0 0-.363.31l-1.069 6.782a.22.22 0 0 0 .218.254h1.262a.369.369 0 0 0 .364-.31l.288-1.829a.368.368 0 0 1 .363-.311h.837c1.742 0 2.747-.843 3.01-2.513.118-.731.005-1.305-.337-1.708-.376-.441-1.043-.675-1.928-.675zm.305 2.477c-.145.949-.87.949-1.571.949h-.399l.28-1.772a.221.221 0 0 1 .218-.186h.183c.477 0 .928 0 1.161.272.139.162.181.404.128.737zM14.985 9.917h-1.266a.22.22 0 0 0-.218.186l-.056.354-.089-.129c-.274-.398-.885-.531-1.495-.531-1.4 0-2.595 1.06-2.828 2.547-.121.742.051 1.451.472 1.946.386.454.938.644 1.595.644 1.128 0 1.753-.725 1.753-.725l-.057.352a.221.221 0 0 0 .218.255h1.14a.369.369 0 0 0 .364-.311l.684-4.334a.22.22 0 0 0-.217-.254zm-1.765 2.464a1.411 1.411 0 0 1-1.429 1.209c-.368 0-.662-.118-.85-.341-.187-.222-.259-.538-.199-.89a1.418 1.418 0 0 1 1.419-1.219c.36 0 .652.12.845.345.193.228.269.546.214.896zM21.73 9.917h-1.273a.369.369 0 0 0-.304.161l-1.755 2.585-.744-2.484a.369.369 0 0 0-.353-.262H16.05a.22.22 0 0 0-.209.291l1.402 4.114-1.318 1.86a.22.22 0 0 0 .18.348h1.271a.366.366 0 0 0 .302-.158l4.233-6.109a.22.22 0 0 0-.181-.346" fill="#283B82"/><path d="M25.943 7.47h-2.645a.368.368 0 0 0-.363.31l-1.069 6.782a.22.22 0 0 0 .217.254h1.357a.258.258 0 0 0 .254-.217l.304-1.922a.367.367 0 0 1 .362-.311h.837c1.742 0 2.748-.843 3.01-2.513.119-.731.005-1.305-.337-1.708-.376-.441-1.042-.675-1.927-.675zm.305 2.477c-.144.949-.869.949-1.571.949h-.398l.28-1.772a.22.22 0 0 1 .217-.186h.183c.477 0 .928 0 1.161.272.139.162.181.404.128.737zM33.848 9.917h-1.266a.218.218 0 0 0-.217.186l-.056.354-.089-.129c-.274-.398-.885-.531-1.496-.531-1.399 0-2.594 1.06-2.827 2.547-.12.742.051 1.451.472 1.946.386.454.938.644 1.595.644 1.127 0 1.753-.725 1.753-.725l-.057.352a.221.221 0 0 0 .218.255h1.141c.18 0 .334-.132.362-.311l.685-4.334a.22.22 0 0 0-.218-.254zm-1.766 2.464a1.41 1.41 0 0 1-1.428 1.209c-.367 0-.662-.118-.851-.341-.187-.222-.257-.538-.198-.89a1.418 1.418 0 0 1 1.419-1.219c.359 0 .652.12.844.345.194.228.271.546.214.896zM35.341 7.656l-1.086 6.906a.22.22 0 0 0 .218.254h1.091a.367.367 0 0 0 .363-.31l1.07-6.781a.22.22 0 0 0-.217-.255h-1.222a.22.22 0 0 0-.217.186" fill="#469BDB"/></g></svg>