<svg xmlns="http://www.w3.org/2000/svg" style="isolation:isolate" viewBox="92.763 16.664 24 24" width="24" height="24"><circle vector-effect="non-scaling-stroke" cx="104.763" cy="28.664" r="12" fill="#CC2127"/><path d="M104.934 22.493c-3.313 0-6 2.689-6 6.006a6.012 6.012 0 0 0 3.625 5.517c-.016-.418 0-.918.105-1.37.117-.489.776-3.285.776-3.285s-.193-.385-.193-.954c0-.893.518-1.56 1.162-1.56.547 0 .812.412.812.905 0 .551-.351 1.375-.532 2.139-.15.64.321 1.161.951 1.161 1.14 0 1.908-1.467 1.908-3.205 0-1.32-.888-2.31-2.505-2.31-1.826 0-2.965 1.363-2.965 2.887 0 .525.155.896.398 1.182.111.132.126.185.086.337-.03.11-.094.377-.122.484-.04.152-.164.206-.302.15-.84-.344-1.233-1.266-1.233-2.303 0-1.712 1.442-3.766 4.303-3.766 2.3 0 3.813 1.666 3.813 3.453 0 2.366-1.314 4.132-3.25 4.132-.65 0-1.261-.352-1.47-.751 0 0-.35 1.388-.424 1.657-.126.458-.37.915-.595 1.275a6.003 6.003 0 0 0 7.653-5.776 6.002 6.002 0 0 0-6-6.005" fill-rule="evenodd" fill="#FFF"/></svg>