<?xml version="1.0" standalone="no"?><!-- Generator: Gravit.io --><svg xmlns="http://www.w3.org/2000/svg" xmlns:xlink="http://www.w3.org/1999/xlink" style="isolation:isolate" viewBox="143 95 74 26" width="74" height="26"><g style="isolation:isolate"><path d="M 148.218 96 L 211.782 96 C 214.11 96 216 97.89 216 100.218 L 216 115.782 C 216 118.11 214.11 120 211.782 120 L 148.218 120 C 145.89 120 144 118.11 144 115.782 L 144 100.218 C 144 97.89 145.89 96 148.218 96 Z" style="stroke:none;fill:#FFFFFF;stroke-miterlimit:10;"/><path d="M 148.218 96 L 211.782 96 C 214.11 96 216 97.89 216 100.218 L 216 115.782 C 216 118.11 214.11 120 211.782 120 L 148.218 120 C 145.89 120 144 118.11 144 115.782 L 144 100.218 C 144 97.89 145.89 96 148.218 96 Z" style="fill:none;stroke:#BEC4C4;stroke-width:1;stroke-linecap:square;stroke-miterlimit:2;"/><path d=" M 150.46 108.911 L 148.971 108.911 L 148.971 111.879 L 148.141 111.879 L 148.141 104.741 L 150.099 104.741 L 150.099 104.741 Q 151.412 104.741 152.04 105.244 L 152.04 105.244 L 152.04 105.244 Q 152.667 105.747 152.667 106.757 L 152.667 106.757 L 152.667 106.757 Q 152.667 108.173 151.231 108.671 L 151.231 108.671 L 153.17 111.879 L 152.188 111.879 L 150.46 108.911 L 150.46 108.911 Z  M 148.971 105.468 L 148.971 108.198 L 150.108 108.198 L 150.108 108.198 Q 150.987 108.198 151.397 107.849 L 151.397 107.849 L 151.397 107.849 Q 151.808 107.5 151.808 106.801 L 151.808 106.801 L 151.808 106.801 Q 151.808 106.093 151.39 105.781 L 151.39 105.781 L 151.39 105.781 Q 150.973 105.468 150.05 105.468 L 150.05 105.468 L 148.971 105.468 L 148.971 105.468 Z  M 158.092 111.879 L 157.491 111.879 L 157.33 111.118 L 157.291 111.118 L 157.291 111.118 Q 156.891 111.621 156.493 111.799 L 156.493 111.799 L 156.493 111.799 Q 156.095 111.977 155.499 111.977 L 155.499 111.977 L 155.499 111.977 Q 154.703 111.977 154.251 111.567 L 154.251 111.567 L 154.251 111.567 Q 153.8 111.157 153.8 110.4 L 153.8 110.4 L 153.8 110.4 Q 153.8 108.779 156.393 108.701 L 156.393 108.701 L 157.301 108.671 L 157.301 108.339 L 157.301 108.339 Q 157.301 107.709 157.03 107.409 L 157.03 107.409 L 157.03 107.409 Q 156.759 107.109 156.163 107.109 L 156.163 107.109 L 156.163 107.109 Q 155.494 107.109 154.649 107.519 L 154.649 107.519 L 154.4 106.899 L 154.4 106.899 Q 154.796 106.684 155.267 106.562 L 155.267 106.562 L 155.267 106.562 Q 155.738 106.44 156.212 106.44 L 156.212 106.44 L 156.212 106.44 Q 157.169 106.44 157.63 106.865 L 157.63 106.865 L 157.63 106.865 Q 158.092 107.29 158.092 108.227 L 158.092 108.227 L 158.092 111.879 L 158.092 111.879 Z  M 155.66 111.308 L 155.66 111.308 L 155.66 111.308 Q 156.417 111.308 156.849 110.893 L 156.849 110.893 L 156.849 110.893 Q 157.281 110.478 157.281 109.731 L 157.281 109.731 L 157.281 109.248 L 156.471 109.282 L 156.471 109.282 Q 155.504 109.316 155.077 109.582 L 155.077 109.582 L 155.077 109.582 Q 154.649 109.848 154.649 110.41 L 154.649 110.41 L 154.649 110.41 Q 154.649 110.849 154.916 111.079 L 154.916 111.079 L 154.916 111.079 Q 155.182 111.308 155.66 111.308 Z  M 161.49 111.308 L 161.49 111.308 L 161.49 111.308 Q 161.705 111.308 161.905 111.276 L 161.905 111.276 L 161.905 111.276 Q 162.105 111.245 162.223 111.21 L 162.223 111.21 L 162.223 111.831 L 162.223 111.831 Q 162.091 111.894 161.834 111.936 L 161.834 111.936 L 161.834 111.936 Q 161.578 111.977 161.373 111.977 L 161.373 111.977 L 161.373 111.977 Q 159.82 111.977 159.82 110.341 L 159.82 110.341 L 159.82 107.158 L 159.054 107.158 L 159.054 106.767 L 159.82 106.43 L 160.162 105.288 L 160.631 105.288 L 160.631 106.528 L 162.184 106.528 L 162.184 107.158 L 160.631 107.158 L 160.631 110.307 L 160.631 110.307 Q 160.631 110.791 160.86 111.049 L 160.86 111.049 L 160.86 111.049 Q 161.09 111.308 161.49 111.308 Z  M 165.553 111.977 L 165.553 111.977 L 165.553 111.977 Q 164.366 111.977 163.68 111.254 L 163.68 111.254 L 163.68 111.254 Q 162.994 110.532 162.994 109.248 L 162.994 109.248 L 162.994 109.248 Q 162.994 107.954 163.631 107.192 L 163.631 107.192 L 163.631 107.192 Q 164.269 106.43 165.343 106.43 L 165.343 106.43 L 165.343 106.43 Q 166.349 106.43 166.935 107.092 L 166.935 107.092 L 166.935 107.092 Q 167.521 107.753 167.521 108.837 L 167.521 108.837 L 167.521 109.35 L 163.834 109.35 L 163.834 109.35 Q 163.858 110.292 164.31 110.781 L 164.31 110.781 L 164.31 110.781 Q 164.762 111.269 165.582 111.269 L 165.582 111.269 L 165.582 111.269 Q 166.446 111.269 167.291 110.908 L 167.291 110.908 L 167.291 111.63 L 167.291 111.63 Q 166.861 111.816 166.478 111.896 L 166.478 111.896 L 166.478 111.896 Q 166.095 111.977 165.553 111.977 Z  M 165.333 107.109 L 165.333 107.109 L 165.333 107.109 Q 164.688 107.109 164.305 107.529 L 164.305 107.529 L 164.305 107.529 Q 163.922 107.949 163.854 108.691 L 163.854 108.691 L 166.651 108.691 L 166.651 108.691 Q 166.651 107.924 166.31 107.517 L 166.31 107.517 L 166.31 107.517 Q 165.968 107.109 165.333 107.109 Z  M 173.375 111.879 L 172.564 111.879 L 172.564 108.417 L 172.564 108.417 Q 172.564 107.763 172.267 107.441 L 172.267 107.441 L 172.267 107.441 Q 171.969 107.119 171.334 107.119 L 171.334 107.119 L 171.334 107.119 Q 170.494 107.119 170.104 107.573 L 170.104 107.573 L 170.104 107.573 Q 169.713 108.027 169.713 109.072 L 169.713 109.072 L 169.713 111.879 L 168.902 111.879 L 168.902 106.528 L 169.562 106.528 L 169.693 107.26 L 169.732 107.26 L 169.732 107.26 Q 169.981 106.865 170.431 106.647 L 170.431 106.647 L 170.431 106.647 Q 170.88 106.43 171.432 106.43 L 171.432 106.43 L 171.432 106.43 Q 172.398 106.43 172.887 106.896 L 172.887 106.896 L 172.887 106.896 Q 173.375 107.363 173.375 108.388 L 173.375 108.388 L 173.375 111.879 L 173.375 111.879 Z  M 178.463 111.25 L 178.463 111.879 L 174.581 111.879 L 174.581 111.328 L 177.501 107.158 L 174.762 107.158 L 174.762 106.528 L 178.39 106.528 L 178.39 107.158 L 175.509 111.25 L 178.463 111.25 L 178.463 111.25 Z  M 183.609 111.879 L 183.009 111.879 L 182.848 111.118 L 182.809 111.118 L 182.809 111.118 Q 182.408 111.621 182.01 111.799 L 182.01 111.799 L 182.01 111.799 Q 181.612 111.977 181.017 111.977 L 181.017 111.977 L 181.017 111.977 Q 180.221 111.977 179.769 111.567 L 179.769 111.567 L 179.769 111.567 Q 179.317 111.157 179.317 110.4 L 179.317 110.4 L 179.317 110.4 Q 179.317 108.779 181.91 108.701 L 181.91 108.701 L 182.818 108.671 L 182.818 108.339 L 182.818 108.339 Q 182.818 107.709 182.547 107.409 L 182.547 107.409 L 182.547 107.409 Q 182.276 107.109 181.681 107.109 L 181.681 107.109 L 181.681 107.109 Q 181.012 107.109 180.167 107.519 L 180.167 107.519 L 179.918 106.899 L 179.918 106.899 Q 180.313 106.684 180.785 106.562 L 180.785 106.562 L 180.785 106.562 Q 181.256 106.44 181.729 106.44 L 181.729 106.44 L 181.729 106.44 Q 182.687 106.44 183.148 106.865 L 183.148 106.865 L 183.148 106.865 Q 183.609 107.29 183.609 108.227 L 183.609 108.227 L 183.609 111.879 L 183.609 111.879 Z  M 181.178 111.308 L 181.178 111.308 L 181.178 111.308 Q 181.935 111.308 182.367 110.893 L 182.367 110.893 L 182.367 110.893 Q 182.799 110.478 182.799 109.731 L 182.799 109.731 L 182.799 109.248 L 181.988 109.282 L 181.988 109.282 Q 181.021 109.316 180.594 109.582 L 180.594 109.582 L 180.594 109.582 Q 180.167 109.848 180.167 110.41 L 180.167 110.41 L 180.167 110.41 Q 180.167 110.849 180.433 111.079 L 180.433 111.079 L 180.433 111.079 Q 180.699 111.308 181.178 111.308 Z  M 189.752 111.879 L 188.941 111.879 L 188.941 108.417 L 188.941 108.417 Q 188.941 107.763 188.644 107.441 L 188.644 107.441 L 188.644 107.441 Q 188.346 107.119 187.711 107.119 L 187.711 107.119 L 187.711 107.119 Q 186.866 107.119 186.478 107.578 L 186.478 107.578 L 186.478 107.578 Q 186.09 108.037 186.09 109.082 L 186.09 109.082 L 186.09 111.879 L 185.279 111.879 L 185.279 104.282 L 186.09 104.282 L 186.09 106.582 L 186.09 106.582 Q 186.09 106.997 186.051 107.27 L 186.051 107.27 L 186.1 107.27 L 186.1 107.27 Q 186.339 106.884 186.781 106.662 L 186.781 106.662 L 186.781 106.662 Q 187.223 106.44 187.789 106.44 L 187.789 106.44 L 187.789 106.44 Q 188.771 106.44 189.261 106.906 L 189.261 106.906 L 189.261 106.906 Q 189.752 107.373 189.752 108.388 L 189.752 108.388 L 189.752 111.879 L 189.752 111.879 Z  M 192.228 104.282 L 192.228 111.879 L 191.417 111.879 L 191.417 104.282 L 192.228 104.282 L 192.228 104.282 Z  M 193.888 106.528 L 194.708 106.528 L 194.708 110 L 194.708 110 Q 194.708 110.654 195.006 110.976 L 195.006 110.976 L 195.006 110.976 Q 195.304 111.298 195.938 111.298 L 195.938 111.298 L 195.938 111.298 Q 196.778 111.298 197.167 110.839 L 197.167 110.839 L 197.167 110.839 Q 197.555 110.38 197.555 109.34 L 197.555 109.34 L 197.555 106.528 L 198.365 106.528 L 198.365 111.879 L 197.696 111.879 L 197.579 111.162 L 197.535 111.162 L 197.535 111.162 Q 197.286 111.557 196.844 111.767 L 196.844 111.767 L 196.844 111.767 Q 196.402 111.977 195.836 111.977 L 195.836 111.977 L 195.836 111.977 Q 194.859 111.977 194.374 111.513 L 194.374 111.513 L 194.374 111.513 Q 193.888 111.049 193.888 110.029 L 193.888 110.029 L 193.888 106.528 L 193.888 106.528 Z  M 204.557 111.879 L 203.746 111.879 L 203.746 108.417 L 203.746 108.417 Q 203.746 107.763 203.448 107.441 L 203.448 107.441 L 203.448 107.441 Q 203.15 107.119 202.516 107.119 L 202.516 107.119 L 202.516 107.119 Q 201.676 107.119 201.285 107.573 L 201.285 107.573 L 201.285 107.573 Q 200.895 108.027 200.895 109.072 L 200.895 109.072 L 200.895 111.879 L 200.084 111.879 L 200.084 106.528 L 200.743 106.528 L 200.875 107.26 L 200.914 107.26 L 200.914 107.26 Q 201.163 106.865 201.612 106.647 L 201.612 106.647 L 201.612 106.647 Q 202.062 106.43 202.613 106.43 L 202.613 106.43 L 202.613 106.43 Q 203.58 106.43 204.068 106.896 L 204.068 106.896 L 204.068 106.896 Q 204.557 107.363 204.557 108.388 L 204.557 108.388 L 204.557 111.879 L 204.557 111.879 Z  M 208.751 106.528 L 210.602 106.528 L 210.602 107.041 L 209.61 107.158 L 209.61 107.158 Q 209.747 107.329 209.854 107.604 L 209.854 107.604 L 209.854 107.604 Q 209.962 107.88 209.962 108.227 L 209.962 108.227 L 209.962 108.227 Q 209.962 109.013 209.425 109.482 L 209.425 109.482 L 209.425 109.482 Q 208.888 109.951 207.95 109.951 L 207.95 109.951 L 207.95 109.951 Q 207.711 109.951 207.501 109.912 L 207.501 109.912 L 207.501 109.912 Q 206.983 110.185 206.983 110.6 L 206.983 110.6 L 206.983 110.6 Q 206.983 110.82 207.164 110.925 L 207.164 110.925 L 207.164 110.925 Q 207.345 111.03 207.784 111.03 L 207.784 111.03 L 208.731 111.03 L 208.731 111.03 Q 209.601 111.03 210.067 111.396 L 210.067 111.396 L 210.067 111.396 Q 210.533 111.762 210.533 112.46 L 210.533 112.46 L 210.533 112.46 Q 210.533 113.349 209.82 113.815 L 209.82 113.815 L 209.82 113.815 Q 209.107 114.282 207.74 114.282 L 207.74 114.282 L 207.74 114.282 Q 206.69 114.282 206.122 113.891 L 206.122 113.891 L 206.122 113.891 Q 205.553 113.5 205.553 112.788 L 205.553 112.788 L 205.553 112.788 Q 205.553 112.299 205.865 111.943 L 205.865 111.943 L 205.865 111.943 Q 206.178 111.586 206.744 111.459 L 206.744 111.459 L 206.744 111.459 Q 206.539 111.367 206.4 111.171 L 206.4 111.171 L 206.4 111.171 Q 206.261 110.976 206.261 110.717 L 206.261 110.717 L 206.261 110.717 Q 206.261 110.424 206.417 110.205 L 206.417 110.205 L 206.417 110.205 Q 206.573 109.985 206.91 109.78 L 206.91 109.78 L 206.91 109.78 Q 206.495 109.609 206.234 109.199 L 206.234 109.199 L 206.234 109.199 Q 205.973 108.789 205.973 108.261 L 205.973 108.261 L 205.973 108.261 Q 205.973 107.382 206.5 106.906 L 206.5 106.906 L 206.5 106.906 Q 207.027 106.43 207.994 106.43 L 207.994 106.43 L 207.994 106.43 Q 208.414 106.43 208.751 106.528 L 208.751 106.528 L 208.751 106.528 Z  M 206.334 112.778 L 206.334 112.778 L 206.334 112.778 Q 206.334 113.212 206.7 113.437 L 206.7 113.437 L 206.7 113.437 Q 207.066 113.662 207.75 113.662 L 207.75 113.662 L 207.75 113.662 Q 208.771 113.662 209.261 113.356 L 209.261 113.356 L 209.261 113.356 Q 209.752 113.051 209.752 112.529 L 209.752 112.529 L 209.752 112.529 Q 209.752 112.094 209.483 111.926 L 209.483 111.926 L 209.483 111.926 Q 209.215 111.757 208.473 111.757 L 208.473 111.757 L 207.501 111.757 L 207.501 111.757 Q 206.949 111.757 206.642 112.021 L 206.642 112.021 L 206.642 112.021 Q 206.334 112.285 206.334 112.778 Z  M 206.773 108.242 L 206.773 108.242 L 206.773 108.242 Q 206.773 108.803 207.091 109.091 L 207.091 109.091 L 207.091 109.091 Q 207.408 109.379 207.975 109.379 L 207.975 109.379 L 207.975 109.379 Q 209.161 109.379 209.161 108.227 L 209.161 108.227 L 209.161 108.227 Q 209.161 107.021 207.96 107.021 L 207.96 107.021 L 207.96 107.021 Q 207.389 107.021 207.081 107.329 L 207.081 107.329 L 207.081 107.329 Q 206.773 107.636 206.773 108.242 Z " fill-rule="evenodd" fill="rgb(0,0,0)"/></g></svg>