<svg xmlns="http://www.w3.org/2000/svg" style="isolation:isolate" viewBox="63 31 66 26" width="66" height="26"><g style="isolation:isolate"><path d="M67.977 32h56.046A3.979 3.979 0 0 1 128 35.977v16.046A3.979 3.979 0 0 1 124.023 56H67.977A3.979 3.979 0 0 1 64 52.023V35.977A3.979 3.979 0 0 1 67.977 32z" fill="#fff"/><path d="M67.977 32h56.046A3.979 3.979 0 0 1 128 35.977v16.046A3.979 3.979 0 0 1 124.023 56H67.977A3.979 3.979 0 0 1 64 52.023V35.977A3.979 3.979 0 0 1 67.977 32z" fill="none" stroke="#bec4c4" stroke-linecap="square" stroke-miterlimit="2"/><path d="M75.01 44.911h-1.489v2.968h-.831v-7.138h1.958q1.314 0 1.941.503.628.503.628 1.513 0 1.416-1.436 1.914l1.939 3.208h-.982l-1.728-2.968zm-1.489-3.443v2.73h1.137q.879 0 1.289-.349.41-.349.41-1.048 0-.708-.417-1.02-.418-.313-1.34-.313h-1.079zm7.49 6.509q-1.187 0-1.873-.723-.686-.722-.686-2.006 0-1.294.637-2.056.638-.762 1.712-.762 1.006 0 1.592.662.586.661.586 1.745v.513h-3.687q.024.942.476 1.431.452.488 1.272.488.864 0 1.709-.361v.722q-.43.186-.813.266-.383.081-.925.081zm-.22-4.868q-.645 0-1.028.42t-.451 1.162h2.797q0-.767-.341-1.174-.342-.408-.977-.408zm5.708 4.868q-1.162 0-1.799-.715-.637-.716-.637-2.024 0-1.343.646-2.075.647-.733 1.844-.733.385 0 .771.083t.606.195l-.249.689q-.269-.107-.586-.178-.318-.071-.562-.071-1.631 0-1.631 2.08 0 .986.398 1.514.398.527 1.179.527.669 0 1.373-.288v.718q-.538.278-1.353.278zm7.095-.098h-.811v-3.462q0-.654-.298-.976-.297-.322-.932-.322-.845 0-1.233.459-.388.459-.388 1.504v2.797h-.811v-7.597h.811v2.3q0 .415-.039.688h.048q.24-.386.682-.608.441-.222 1.008-.222.981 0 1.472.466.491.467.491 1.482v3.491zm6.137 0h-.81v-3.462q0-.654-.298-.976-.298-.322-.933-.322-.839 0-1.23.454t-.391 1.499v2.807h-.81v-5.351h.659l.132.732h.039q.249-.395.698-.613.449-.217 1.001-.217.967 0 1.455.466.488.467.488 1.492v3.491zm1.607-5.351h.82V46q0 .654.298.976.298.322.933.322.84 0 1.228-.459t.388-1.499v-2.812h.81v5.351h-.669l-.117-.717h-.044q-.249.395-.691.605-.441.21-1.008.21-.976 0-1.462-.464t-.486-1.484v-3.501zm10.669 5.351h-.811v-3.462q0-.654-.298-.976-.297-.322-.932-.322-.84 0-1.231.454-.39.454-.39 1.499v2.807h-.811v-5.351h.659l.132.732h.039q.249-.395.699-.613.449-.217 1-.217.967 0 1.456.466.488.467.488 1.492v3.491zm4.194-5.351h1.851v.513l-.991.117q.136.171.244.446.107.276.107.623 0 .786-.537 1.255-.537.469-1.475.469-.239 0-.449-.039-.517.273-.517.688 0 .22.18.325.181.105.62.105h.948q.869 0 1.335.366.466.366.466 1.064 0 .889-.712 1.355-.713.467-2.081.467-1.049 0-1.618-.391-.569-.391-.569-1.103 0-.489.312-.845.313-.357.879-.484-.205-.092-.344-.288-.139-.195-.139-.454 0-.293.156-.512.156-.22.493-.425-.415-.171-.676-.581-.261-.41-.261-.938 0-.879.527-1.355.528-.476 1.494-.476.42 0 .757.098zm-2.417 6.25q0 .434.366.659.367.225 1.05.225 1.021 0 1.511-.306.491-.305.491-.827 0-.435-.268-.603-.269-.169-1.011-.169h-.972q-.552 0-.859.264-.308.264-.308.757zm.44-4.536q0 .561.317.849.317.288.884.288 1.186 0 1.186-1.152 0-1.206-1.201-1.206-.571 0-.879.308-.307.307-.307.913z" fill-rule="evenodd"/></g></svg>