<svg xmlns="http://www.w3.org/2000/svg" style="isolation:isolate" viewBox="96 -80 112 32" width="112" height="32"><g style="isolation:isolate"><path fill="none" d="M96-80h112v32H96z"/><path d="M110.954-63.833l5.661-5.314h-5.581l-5.681 5.314h5.601m1.505 4.983l4.125-3.886h-12.402l-4.153 3.886h12.43" fill="#134C95"/><path d="M98.343-74h19.997v19.996H98.343V-74zm1.14 18.857h17.718V-72.86H99.483v17.717z" fill-rule="evenodd" fill="#134C95"/><path d="M135.614-73.996h2.522v3.781h7.858v-3.781h2.522v9.956h-2.522v-3.774h-7.858v3.774h-2.522v-9.956m27.409 0h-13.135v9.956h13.135v-2.393h-10.611v-1.381h10.017v-2.401h-10.017v-1.38h10.611v-2.401m11.186 9.956l-7.588-6.888v6.888h-2.523v-9.948h2.968l7.546 6.848v-6.856h2.523v9.956h-2.926m17.197-9.956v7.401c0 1.411-1.167 2.555-2.607 2.555h-7.953c-1.439 0-2.606-1.144-2.606-2.555v-7.401h2.522v6.739c0 .454.377.824.842.824h6.438c.465 0 .841-.37.841-.824v-6.739h2.523zm11.099 9.956c1.741 0 3.152-1.376 3.152-3.083 0-1.708-1.411-3.091-3.152-3.091h-6.886a.716.716 0 0 1-.723-.71c0-.391.324-.671.723-.671h9.684v-2.401h-9.735c-1.742 0-3.153 1.383-3.153 3.091 0 1.707 1.411 3.09 3.153 3.09h6.885c.399 0 .723.317.723.71 0 .391-.324.672-.723.672h-9.828v2.393h9.88" fill="#134C95"/><path d="M124.118-70.215v-1.38h7.285c.39 0 .706.309.706.69a.698.698 0 0 1-.706.691h-7.285m0 2.406v3.768h-2.524v-9.956h9.881c1.741 0 3.153 1.383 3.153 3.091 0 1.707-1.412 3.097-3.153 3.097h-.776l3.813 3.768h-3.541l-3.823-3.768h-3.03z" fill-rule="evenodd" fill="#134C95"/><path d="M186.18-54.038c-.636 0-1.16-.528-1.16-1.191v-4.331c0-.662.524-1.191 1.16-1.191h7.539l.008 1.266h-6.731a.614.614 0 0 0-.61.619v2.98c0 .338.269.619.61.619h6.731l-.008 1.229h-7.539zm10.252.03v-1.268h6.851c.394 0 .751-.287.751-.717a.745.745 0 0 0-.751-.741h-4.96c-1.132 0-2.042-.901-2.042-2.004 0-1.101.91-2.001 2.042-2.001h6.785v1.273h-6.747c-.393 0-.751.286-.751.716 0 .414.341.741.751.741h4.96c1.132 0 2.042.901 2.042 2.004 0 1.101-.909 1.997-2.042 1.997h-6.889m-18.312-5.466h-3.264l.001 5.466h-1.363l-.001-5.462-3.261-.015v-1.266h7.888v1.277m2.556-1.277h1.361v6.743h-1.361zm-21.356 6.743v-1.268h6.851c.393 0 .75-.287.75-.717a.745.745 0 0 0-.75-.741h-4.96c-1.132 0-2.043-.901-2.043-2.004 0-1.101.911-2.001 2.043-2.001h6.784v1.273h-6.748c-.393 0-.75.286-.75.716 0 .414.341.741.75.741h4.961c1.132 0 2.042.901 2.042 2.004 0 1.101-.909 1.997-2.043 1.997h-6.887m-4.21-6.743h1.361v6.743h-1.361zm-33.572.008h1.363v5.464l7.228.014V-54h-8.578l-.013-6.743m13.025 6.705h-1.579c-.637 0-1.16-.528-1.16-1.191v-4.331c0-.662.523-1.191 1.16-1.191h6.387c.636 0 1.159.529 1.159 1.191v4.331c0 .663-.523 1.191-1.159 1.191h-4.808zm-.009-5.447h-.754a.614.614 0 0 0-.61.619v2.98c0 .338.268.619.61.619h4.754a.615.615 0 0 0 .611-.619v-2.98a.615.615 0 0 0-.611-.619h-4zm11.58 4.218h3.728a.615.615 0 0 0 .611-.619v-.33a.615.615 0 0 0-.611-.619h-3.322l.007-1.265h4.132c.636 0 1.159.529 1.159 1.191v1.68c0 .663-.523 1.191-1.159 1.191h-6.434c-.635 0-1.16-.528-1.16-1.191v-4.331c0-.662.525-1.191 1.16-1.191l7.57.008v1.258h-6.753a.615.615 0 0 0-.611.619v2.981c0 .337.27.619.611.619h1.072" fill="#134C95"/></g></svg>