<svg xmlns="http://www.w3.org/2000/svg" style="isolation:isolate" viewBox="47 -1 42 26" width="42" height="26"><g style="isolation:isolate"><path d="M51.144 0h33.712A3.146 3.146 0 0 1 88 3.144v17.712A3.146 3.146 0 0 1 84.856 24H51.144A3.146 3.146 0 0 1 48 20.856V3.144A3.146 3.146 0 0 1 51.144 0z" fill="#fff"/><path d="M51.144 0h33.712A3.146 3.146 0 0 1 88 3.144v17.712A3.146 3.146 0 0 1 84.856 24H51.144A3.146 3.146 0 0 1 48 20.856V3.144A3.146 3.146 0 0 1 51.144 0z" fill="none" stroke="#bec4c4" stroke-linecap="square" stroke-miterlimit="2"/><path d="M65.867 17.029h-2.593l1.622-10.025h2.592l-1.621 10.025zM75.264 7.249a6.39 6.39 0 0 0-2.325-.427c-2.56 0-4.363 1.365-4.374 3.317-.021 1.439 1.291 2.239 2.272 2.719 1.003.491 1.344.811 1.344 1.248-.011.672-.811.982-1.557.982-1.035 0-1.589-.16-2.432-.534l-.342-.16-.362 2.251c.608.277 1.728.522 2.891.533 2.72 0 4.49-1.344 4.511-3.424.011-1.141-.682-2.015-2.175-2.73-.907-.459-1.462-.768-1.462-1.237.01-.427.469-.864 1.493-.864a4.408 4.408 0 0 1 1.931.384l.234.106.353-2.164zM78.709 13.477l1.035-2.805c-.011.022.213-.586.341-.96l.181.864s.491 2.4.598 2.901h-2.155zm3.2-6.473h-2.005c-.619 0-1.088.181-1.355.831l-3.851 9.194h2.72l.544-1.504h3.329c.074.352.309 1.504.309 1.504H84L81.909 7.004zM61.109 7.004l-2.538 6.836-.278-1.387c-.469-1.599-1.941-3.338-3.584-4.202l2.326 8.767h2.741L63.85 7.004h-2.741z" fill="#00579F"/><path d="M56.213 7.004h-4.17L52 7.206c3.253.832 5.408 2.837 6.293 5.248l-.906-4.608c-.15-.64-.608-.821-1.174-.842z" fill="#FAA61A"/></g></svg>