<svg xmlns="http://www.w3.org/2000/svg" style="isolation:isolate" viewBox="-1 31 58 26" width="58" height="26"><g style="isolation:isolate"><path d="M3.72 32h48.56A3.722 3.722 0 0 1 56 35.72v16.56A3.722 3.722 0 0 1 52.28 56H3.72A3.722 3.722 0 0 1 0 52.28V35.72A3.722 3.722 0 0 1 3.72 32z" fill="#fff"/><path d="M3.72 32h48.56A3.722 3.722 0 0 1 56 35.72v16.56A3.722 3.722 0 0 1 52.28 56H3.72A3.722 3.722 0 0 1 0 52.28V35.72A3.722 3.722 0 0 1 3.72 32z" fill="none" stroke="#bec4c4" stroke-linecap="square" stroke-miterlimit="2"/><path d="M9.41 45.331l1.631-4.59h.893l-2.573 7.138h-.82l-2.559-7.138h.879l1.64 4.619q.284.796.45 1.548.175-.791.459-1.577zm8.003-.132q0 1.308-.66 2.043-.659.735-1.821.735-.718 0-1.274-.337-.557-.337-.86-.967-.302-.63-.302-1.474 0-1.309.654-2.039.654-.73 1.816-.73 1.123 0 1.785.747.662.747.662 2.022zm-4.078 0q0 1.025.411 1.562.41.537 1.206.537t1.208-.534q.413-.535.413-1.565 0-1.021-.413-1.551-.412-.529-1.218-.529-.796 0-1.201.522-.406.523-.406 1.558zm7.94-2.769q.356 0 .64.059l-.113.752q-.332-.074-.586-.074-.649 0-1.111.528-.461.527-.461 1.313v2.871h-.811v-5.351h.669l.093.991h.039q.298-.522.718-.806.42-.283.923-.283zm2.402 2.71h.039q.21-.298.64-.781l1.728-1.831h.962l-2.168 2.28 2.32 3.071h-.982l-1.889-2.529-.611.527v2.002h-.8v-7.597h.8v4.028q0 .269-.039.83zm8.379 2.739h-.6l-.162-.761h-.039q-.4.503-.798.681-.398.178-.994.178-.796 0-1.247-.41-.452-.41-.452-1.167 0-1.621 2.593-1.699l.908-.03v-.332q0-.63-.271-.93-.271-.3-.867-.3-.669 0-1.513.41l-.249-.62q.395-.215.866-.337.472-.122.945-.122.957 0 1.419.425.461.425.461 1.362v3.652zm-2.431-.571q.756 0 1.188-.415.433-.415.433-1.162v-.483l-.811.034q-.967.034-1.394.3-.427.266-.427.828 0 .439.266.669.266.229.745.229zm7.553-.889q0 .748-.556 1.153-.557.405-1.563.405-1.064 0-1.66-.337v-.752q.386.195.828.308.441.112.852.112.634 0 .976-.203.342-.202.342-.617 0-.313-.271-.535-.271-.222-1.057-.525-.747-.278-1.062-.486-.315-.207-.469-.471-.154-.263-.154-.63 0-.654.533-1.032.532-.379 1.459-.379.865 0 1.69.352l-.288.659q-.806-.332-1.46-.332-.576 0-.869.181-.293.18-.293.498 0 .214.11.366.109.151.354.288.244.137.937.395.952.347 1.287.699.334.351.334.883zm4.771 0q0 .748-.557 1.153t-1.562.405q-1.065 0-1.661-.337v-.752q.386.195.828.308.442.112.852.112.635 0 .977-.203.341-.202.341-.617 0-.313-.271-.535-.271-.222-1.057-.525-.747-.278-1.062-.486-.315-.207-.468-.471-.154-.263-.154-.63 0-.654.532-1.032.532-.379 1.46-.379.864 0 1.689.352l-.288.659q-.805-.332-1.46-.332-.576 0-.869.181-.293.18-.293.498 0 .214.11.366.11.151.354.288.244.137.938.395.952.347 1.286.699.335.351.335.883zm3.579 1.558q-1.187 0-1.873-.723-.686-.722-.686-2.006 0-1.294.637-2.056.638-.762 1.712-.762 1.006 0 1.592.662.586.661.586 1.745v.513h-3.687q.024.942.476 1.431.452.488 1.272.488.864 0 1.709-.361v.722q-.43.186-.813.266-.383.081-.925.081zm-.22-4.868q-.644 0-1.028.42-.383.42-.451 1.162h2.797q0-.767-.341-1.174-.342-.408-.977-.408z" fill-rule="evenodd"/></g></svg>