<svg xmlns="http://www.w3.org/2000/svg" xmlns:xlink="http://www.w3.org/1999/xlink" width="32" height="32" viewBox="0 0 32 32">
    <defs>
        <path id="a" d="M20.455 7.83c2.475 0 4.554 2.18 4.554 4.776 0 2.388-1.089 4.671-3.466 7.164-1.187 1.35-2.871 2.802-4.257 3.945-.494.415-.99.83-1.287 1.142-.396-.312-.792-.727-1.287-1.142-1.386-1.142-3.07-2.596-4.257-3.945-2.575-2.492-3.663-4.776-3.663-7.164 0-2.596 2.079-4.776 4.554-4.776 1.584 0 2.97.83 3.86 2.284.198.208.397.416.694.416.297 0 .594-.104.693-.416a4.366 4.366 0 0 1 3.86-2.284h.002zm0-.83C18.574 7 16.89 8.038 15.9 9.596 14.91 8.038 13.228 7 11.347 7 8.377 7 6 9.491 6 12.607c0 3.115 1.683 5.606 3.762 7.786C11.842 22.573 15.108 25.17 16 26c.792-.83 4.158-3.426 6.238-5.606 2.08-2.18 3.762-4.671 3.762-7.786C25.802 9.493 23.327 7 20.456 7L20.455 7z"/>
    </defs>
    <g fill="none" fill-rule="evenodd">
        <mask id="b" fill="#fff">
            <use xlink:href="#a"/>
        </mask>
        <use fill="#2C3638" fill-rule="nonzero" xlink:href="#a"/>
        <g fill="#565D60" mask="url(#b)">
            <path d="M0 0h32v32H0z"/>
        </g>
    </g>
</svg>
